HIERARCHY
ROOT Hips
{
 OFFSET 0.000000 0.000000 0.000000
 CHANNELS 6 Xposition Yposition Zposition Yrotation Xrotation Zrotation
 JOINT Chest
 {
  OFFSET 0.000000 10.383400 0.001500
  CHANNELS 3 Yrotation Xrotation Zrotation
  JOINT Chest2
  {
   OFFSET 0.000000 10.418200 -0.003100
   CHANNELS 3 Yrotation Xrotation Zrotation
   JOINT Chest3
   {
    OFFSET 0.000000 10.375100 0.000000
    CHANNELS 3 Yrotation Xrotation Zrotation
    JOINT Chest4
    {
     OFFSET 0.000000 10.364600 0.000000
     CHANNELS 3 Yrotation Xrotation Zrotation
     JOINT Neck
     {
      OFFSET 0.000000 15.642200 0.000000
      CHANNELS 3 Yrotation Xrotation Zrotation
      JOINT Head
      {
       OFFSET 0.000000 9.697300 -0.006500
       CHANNELS 3 Yrotation Xrotation Zrotation
       End Site
       {
        OFFSET 0.000000 18.492200 -0.003400
       }
      }
     }
     JOINT RightCollar
     {
      OFFSET -3.166800 10.349300 0.000000
      CHANNELS 3 Yrotation Xrotation Zrotation
      JOINT RightShoulder
      {
       OFFSET -14.729700 0.000000 0.000000
       CHANNELS 3 Yrotation Xrotation Zrotation
       JOINT RightElbow
       {
        OFFSET 0.000000 -32.224300 0.000000
        CHANNELS 3 Yrotation Xrotation Zrotation
        JOINT RightWrist
        {
         OFFSET 0.000000 -26.084100 0.000000
         CHANNELS 3 Yrotation Xrotation Zrotation
         End Site
         {
          OFFSET 0.000000 -19.319400 0.000000
         }
        }
       }
      }
     }
     JOINT LeftCollar
     {
      OFFSET 3.166800 10.349300 0.000000
      CHANNELS 3 Yrotation Xrotation Zrotation
      JOINT LeftShoulder
      {
       OFFSET 14.729700 0.000000 0.000000
       CHANNELS 3 Yrotation Xrotation Zrotation
       JOINT LeftElbow
       {
        OFFSET 0.000000 -32.224300 0.000000
        CHANNELS 3 Yrotation Xrotation Zrotation
        JOINT LeftWrist
        {
         OFFSET 0.000000 -26.084100 0.000000
         CHANNELS 3 Yrotation Xrotation Zrotation
         End Site
         {
          OFFSET 0.000000 -19.319400 0.000000
         }
        }
       }
      }
     }
    }
   }
  }
 }
 JOINT RightHip
 {
  OFFSET -8.428900 -0.007500 -0.000800
  CHANNELS 3 Yrotation Xrotation Zrotation
  JOINT RightKnee
  {
   OFFSET 0.000000 -43.834600 0.000700
   CHANNELS 3 Yrotation Xrotation Zrotation
   JOINT RightAnkle
   {
    OFFSET 0.000000 -42.757000 0.001200
    CHANNELS 3 Yrotation Xrotation Zrotation
    JOINT RightToe
    {
     OFFSET 0.000000 -6.946900 15.649300
     CHANNELS 3 Yrotation Xrotation Zrotation
     End Site
     {
      OFFSET 0.000000 -1.580800 6.825800
     }
    }
   }
  }
 }
 JOINT LeftHip
 {
  OFFSET 8.428900 -0.007500 -0.000800
  CHANNELS 3 Yrotation Xrotation Zrotation
  JOINT LeftKnee
  {
   OFFSET 0.000000 -43.834600 0.000700
   CHANNELS 3 Yrotation Xrotation Zrotation
   JOINT LeftAnkle
   {
    OFFSET 0.000000 -42.757000 0.001200
    CHANNELS 3 Yrotation Xrotation Zrotation
    JOINT LeftToe
    {
     OFFSET 0.000000 -6.946900 15.649300
     CHANNELS 3 Yrotation Xrotation Zrotation
     End Site
     {
      OFFSET 0.000000 -1.580800 6.825800
     }
    }
   }
  }
 }
}
MOTION
Frames: 16
Frame Time: 0.008333
0.000000 93.354300 0.000000 0.000000 -5.767883 0.000000 0.000000 11.653835 0.000000 0.000000 -5.885947 0.000000 0.000000 -0.000000 0.000000 0.000000 -0.000000 0.000000 0.000000 12.528835 0.000000 0.000000 0.711642 0.000000 0.000000 -0.000000 0.000000 0.000000 0.000000 -90.000000 0.000000 -2.309062 0.000000 0.000000 2.309062 0.000000 0.000000 -0.000000 0.000000 0.000000 -0.000000 90.000000 0.000000 -2.309062 0.000000 0.000000 2.309062 0.000000 0.000000 8.520418 0.000000 0.000000 1.905762 0.000000 -0.000000 -4.658285 0.000000 0.000000 -0.000000 0.000000 0.000000 8.520418 0.000000 0.000000 1.905762 0.000000 -0.000000 -4.658285 0.000000 0.000000 -0.000000 0.000000
126.781794 153.833125 19.427717 -11.944261 -27.127158 -2.621663 -2.172097 22.578929 0.977973 -0.305195 3.189527 0.272104 -0.507867 5.110811 0.441862 -1.633709 19.037151 1.401667 0.339449 14.403450 -0.237643 0.716461 -9.082842 -0.561249 -0.387725 -6.748376 -4.016592 9.653679 -17.665025 -0.207816 17.918640 -47.680569 -3.771242 11.776208 2.670352 -23.115783 -4.607977 -7.537252 -2.219958 -7.852332 -13.756560 7.565419 -38.549658 -55.653665 25.042306 -24.280747 1.971509 37.306323 -3.434262 -41.421693 2.771934 -24.623655 71.164278 -26.401604 0.793898 0.039666 6.326804 0.270649 -0.721769 0.107424 -6.145643 -35.645854 -10.159939 -4.770735 69.554231 -2.035922 -17.692361 -4.735949 -4.767573 0.050705 0.107655 0.012031
126.776446 145.301297 19.421219 -11.977596 -27.075115 -2.834769 -2.027532 22.563426 1.233284 -0.302909 3.197889 0.273247 -0.510334 5.130688 0.432682 -1.598428 19.071190 1.415069 0.350294 14.495793 -0.201694 0.734204 -8.873723 -0.511960 -0.400164 -6.624602 -4.033336 9.781551 -17.702284 -0.356806 17.099950 -47.985403 -3.241022 11.529728 2.507650 -23.019123 -4.654105 -7.492682 -2.155348 -7.874535 -13.785908 7.591299 -37.030924 -56.087858 23.753379 -24.335404 1.956809 36.881785 -3.591855 -41.506883 3.057863 -24.711226 71.228148 -26.467268 0.876039 -0.228087 6.382770 0.167258 -0.447779 0.073973 -6.326241 -35.577175 -9.802965 -4.852793 69.431561 -2.108026 -17.683160 -4.681751 -4.797749 0.029416 0.096349 0.013072
126.772616 138.275723 19.417130 -11.993146 -27.037048 -3.010929 -1.927240 22.544474 1.438424 -0.301750 3.201891 0.274068 -0.495465 5.163945 0.431402 -1.600476 19.053681 1.424687 0.391451 14.641026 -0.173689 0.756780 -8.661769 -0.476351 -0.378002 -6.431513 -4.077099 9.882844 -17.737423 -0.516712 16.176631 -48.309764 -2.615182 11.213142 2.347568 -22.869448 -4.663936 -7.389508 -2.100121 -7.860201 -13.836490 7.601683 -35.425487 -56.515161 22.330854 -24.354254 1.952160 36.385606 -3.722831 -41.569851 3.283137 -24.766325 71.274734 -26.504051 0.934500 -0.442353 6.422581 0.086793 -0.248058 0.038426 -6.515688 -35.521188 -9.487959 -4.910567 69.333206 -2.200063 -17.644949 -4.626491 -4.814391 0.019744 0.063747 0.008772
126.771105 133.203840 19.419095 -11.984981 -27.033924 -3.134332 -1.873399 22.558063 1.575460 -0.300480 3.205665 0.274950 -0.459326 5.225652 0.454732 -1.592376 19.052280 1.443086 0.399103 14.737536 -0.160212 0.786164 -8.452892 -0.456630 -0.391382 -6.276045 -4.147772 9.978503 -17.774865 -0.680898 15.175246 -48.650406 -1.926549 10.796764 2.199216 -22.617442 -4.697713 -7.319699 -2.053842 -7.814549 -13.921062 7.589656 -33.794167 -56.925099 20.849678 -24.319291 1.950148 35.761606 -3.810550 -41.595714 3.413179 -24.824278 71.319778 -26.540466 0.975291 -0.595464 6.463562 0.037724 -0.097569 0.016723 -6.674660 -35.447722 -9.262578 -4.965843 69.242557 -2.285009 -17.632984 -4.579619 -4.834179 0.010713 0.036714 0.004758
126.775654 130.000762 19.423119 -11.973956 -27.036793 -3.181933 -1.842955 22.588741 1.645188 -0.284215 3.242015 0.293870 -0.467079 5.222412 0.453421 -1.582071 19.054410 1.458616 0.422217 14.850240 -0.150458 0.825810 -8.250300 -0.449548 -0.405516 -6.103574 -4.222455 10.097132 -17.815636 -0.838614 14.132346 -49.003955 -1.239617 10.273572 2.057511 -22.204507 -4.713997 -7.222246 -2.013286 -7.750232 -14.029612 7.556461 -32.160612 -57.333595 19.364676 -24.227742 1.950314 34.977559 -3.827794 -41.612800 3.431368 -24.844671 71.358723 -26.535731 0.981472 -0.641152 6.482328 0.030208 -0.045426 0.013400 -6.776398 -35.404501 -9.142993 -5.006358 69.186335 -2.358740 -17.634251 -4.549823 -4.849951 0.005655 0.020667 0.002511
126.777250 128.239194 19.426116 -11.965533 -27.039431 -3.213476 -1.820373 22.622985 1.699247 -0.276223 3.262830 0.301766 -0.468404 5.224286 0.454392 -1.601511 19.016470 1.448872 0.490725 15.013668 -0.123923 0.875513 -8.051222 -0.447194 -0.398489 -5.885712 -4.270184 10.244410 -17.857823 -0.982282 13.063494 -49.378253 -0.589494 9.665369 1.922017 -21.618308 -4.696707 -7.074983 -1.962084 -7.690411 -14.132869 7.511741 -30.481531 -57.777907 17.866975 -24.079779 1.958485 34.047704 -3.829406 -41.628287 3.428505 -24.836022 71.400162 -26.505484 0.992191 -0.659135 6.511847 0.018466 -0.006317 0.008197 -6.881073 -35.379155 -9.035693 -5.037870 69.148823 -2.439513 -17.621608 -4.527014 -4.861374 0.002924 0.009939 0.001298
126.778343 127.399312 19.426801 -11.969006 -27.030062 -3.224975 -1.777769 22.674516 1.755052 -0.285975 3.243287 0.291896 -0.464480 5.235599 0.459812 -1.585437 19.036336 1.474694 0.524232 15.120655 -0.124189 0.932553 -7.848235 -0.446114 -0.428624 -5.729714 -4.328212 10.401780 -17.896242 -1.112285 11.930007 -49.795239 0.078830 8.993494 1.756724 -20.907323 -4.708911 -6.996934 -1.934052 -7.653523 -14.202899 7.466228 -28.698628 -58.296373 16.326611 -23.881170 1.964529 32.993653 -3.807563 -41.649997 3.409849 -24.823385 71.425506 -26.472099 0.986799 -0.656549 6.522134 0.023922 0.003131 0.010620 -6.981715 -35.392192 -8.935219 -5.059889 69.141312 -2.530089 -17.615054 -4.516478 -4.864505 0.002203 0.007213 0.000978
126.781428 127.054721 19.427690 -11.969349 -27.018732 -3.216834 -1.757946 22.702763 1.775054 -0.290077 3.241171 0.292011 -0.461718 5.246168 0.464911 -1.527949 19.107680 1.520735 0.518534 15.178618 -0.135055 0.999833 -7.635934 -0.452143 -0.494225 -5.622552 -4.385429 10.533349 -17.926903 -1.226446 10.697411 -50.276426 0.838885 8.240934 1.483659 -20.150641 -4.749373 -6.977933 -1.915413 -7.637675 -14.225616 7.429639 -26.793176 -58.919622 14.726150 -23.614779 1.921629 31.845367 -3.612240 -41.691113 3.210655 -24.811025 71.489602 -26.309768 1.001305 -0.652448 6.536962 0.006642 -0.000914 0.002949 -7.083651 -35.414483 -8.850029 -5.063177 69.135288 -2.619361 -17.620777 -4.510340 -4.865776 0.000889 0.004465 0.000395
126.783213 126.933538 19.427796 -11.968857 -27.003713 -3.213294 -1.750769 22.716446 1.795276 -0.289959 3.247620 0.295267 -0.461369 5.255967 0.470084 -1.511439 19.138733 1.548250 0.550325 15.280018 -0.144241 1.081119 -7.416012 -0.472183 -0.517308 -5.468499 -4.439516 10.605266 -17.944110 -1.319498 9.355321 -50.833733 1.738355 7.394910 1.017347 -19.464191 -4.736460 -6.920909 -1.904752 -7.626002 -14.199018 7.411635 -24.753227 -59.659168 13.020135 -23.218877 1.730271 30.663519 -3.461327 -41.723982 3.058526 -24.793536 71.535933 -26.174124 1.001693 -0.647817 6.544717 0.003995 -0.000879 0.001773 -7.188449 -35.443678 -8.766025 -5.072266 69.135701 -2.701677 -17.629921 -4.509758 -4.875295 0.000113 0.002440 0.000050
126.785471 126.897203 19.429231 -11.959843 -26.994275 -3.209067 -1.758598 22.738335 1.811325 -0.291363 3.254527 0.298827 -0.462745 5.239928 0.458904 -1.510072 19.180717 1.583658 0.599153 15.397964 -0.153548 1.174683 -7.196455 -0.506377 -0.523260 -5.297076 -4.495091 10.603967 -17.938442 -1.393349 7.863944 -51.481088 2.838089 6.502224 0.345065 -18.949199 -4.689493 -6.852869 -1.899221 -7.594382 -14.129599 7.412845 -22.529671 -60.504287 11.108428 -22.637699 1.283417 29.510452 -3.291861 -41.750581 2.881156 -24.754080 71.594479 -26.007636 0.991349 -0.652106 6.558064 -0.001749 -0.003747 -0.000776 -7.273985 -35.463501 -8.717834 -5.068526 69.143040 -2.755397 -17.576636 -4.513492 -4.880443 0.001941 0.000730 0.000862
126.787494 126.886708 19.429798 -11.956471 -26.978434 -3.205321 -1.764310 22.761025 1.829885 -0.293284 3.262853 0.302683 -0.461335 5.215840 0.448441 -1.515272 19.236269 1.619866 0.649410 15.509753 -0.166653 1.272199 -6.988233 -0.547861 -0.537284 -5.134446 -4.553875 10.534086 -17.900596 -1.450218 6.143723 -52.237620 4.215941 5.624092 -0.445076 -18.584934 -4.626464 -6.796143 -1.893220 -7.518631 -14.029943 7.418288 -20.070283 -61.445131 8.889578 -21.899979 0.577615 28.422392 -3.115324 -41.779648 2.699756 -24.730367 71.636166 -25.845406 0.992312 -0.651306 6.562937 -0.006845 -0.010375 -0.003038 -7.307333 -35.485267 -8.702232 -5.072697 69.152249 -2.765899 -17.557066 -4.511237 -4.874204 0.003046 0.000974 0.001352
126.788238 126.882888 19.430183 -11.955443 -26.961271 -3.208593 -1.760408 22.791397 1.856397 -0.298336 3.256030 0.301589 -0.463954 5.293115 0.484990 -1.519051 19.213225 1.613921 0.695647 15.610672 -0.179104 1.361882 -6.800125 -0.586586 -0.578761 -4.987753 -4.607058 10.403171 -17.823372 -1.483387 4.096584 -53.106169 5.969488 4.809796 -1.261292 -18.292160 -4.562596 -6.746509 -1.874742 -7.383181 -13.917188 7.407236 -17.357934 -62.488316 6.303748 -21.117772 -0.270071 27.434571 -2.958787 -41.802869 2.537857 -24.692259 71.666964 -25.677530 1.001905 -0.640429 6.568341 -0.011356 -0.013357 -0.005040 -7.332457 -35.502644 -8.689796 -5.108807 69.162749 -2.786138 -17.533400 -4.529048 -4.892136 0.003524 0.000719 0.001564
126.789645 126.880708 19.431676 -11.951688 -26.947306 -3.208876 -1.760132 22.803371 1.866868 -0.302490 3.244613 0.298503 -0.446793 5.382102 0.512377 -1.511728 19.221200 1.626783 0.734370 15.698399 -0.188002 1.436326 -6.636640 -0.616127 -0.654459 -4.859893 -4.648425 10.213867 -17.705943 -1.484609 1.653509 -54.077503 8.187153 4.160510 -2.035362 -18.067874 -4.511419 -6.695946 -1.835791 -7.184259 -13.806057 7.369367 -14.403634 -63.651211 3.337855 -20.386035 -1.123042 26.576519 -2.848172 -41.812524 2.409862 -24.597496 71.697917 -25.494682 0.994563 -0.642220 6.573038 -0.014309 -0.010515 -0.006351 -7.312333 -35.505292 -8.725130 -5.089098 69.166025 -2.713965 -17.522991 -4.542984 -4.897005 -0.000063 0.004406 -0.000028
126.790544 126.878668 19.433082 -11.944953 -26.931020 -3.213464 -1.732350 22.862615 1.899710 -0.316569 3.235801 0.301861 -0.430500 5.409346 0.514413 -1.490229 19.250814 1.648749 0.764249 15.772467 -0.193629 1.493273 -6.498657 -0.636479 -0.759599 -4.749085 -4.679882 9.978712 -17.552948 -1.452474 -1.164225 -55.150527 10.871003 3.741919 -2.717919 -17.966047 -4.477022 -6.639149 -1.778464 -6.926625 -13.702845 7.312933 -11.225852 -64.950147 0.012197 -19.722542 -1.884326 25.849328 -2.816847 -41.822707 2.361881 -24.504312 71.727983 -25.383120 0.968533 -0.649968 6.582598 -0.009449 -0.007934 -0.004194 -7.296701 -35.514872 -8.750452 -5.075433 69.173478 -2.663477 -17.512892 -4.548778 -4.889205 -0.001374 0.004846 -0.000610
126.789797 126.876829 19.434432 -11.939262 -26.914743 -3.226166 -1.689156 22.928610 1.942225 -0.326405 3.228359 0.304682 -0.417034 5.434667 0.518551 -1.459366 19.281922 1.672129 0.785971 15.836336 -0.196790 1.534166 -6.379643 -0.649284 -0.886724 -4.649048 -4.704271 9.727232 -17.372825 -1.395940 -4.281966 -56.323781 13.954803 3.473303 -3.327216 -18.001919 -4.455695 -6.573501 -1.711355 -6.620607 -13.607712 7.258730 -7.810436 -66.384371 -3.671950 -19.105342 -2.507599 25.243732 -2.857453 -41.812493 2.376762 -24.373148 71.731046 -25.276505 0.949589 -0.665722 6.580487 -0.003329 0.005037 -0.001478 -7.310069 -35.533492 -8.745723 -5.054023 69.183824 -2.623325 -17.558774 -4.543744 -4.863096 -0.004512 0.004297 -0.002003
